<svg xmlns="http://www.w3.org/2000/svg" viewBox="0 0 1200 750" width="1200" height="750">
  <defs>
    <linearGradient id="bg" x1="0" y1="0" x2="1" y2="1">
      <stop offset="0" stop-color="#3ECF8E"/>
      <stop offset="1" stop-color="#10B981"/>
    </linearGradient>
    <linearGradient id="side" x1="0" y1="0" x2="0" y2="1">
      <stop offset="0" stop-color="#3ECF8E" stop-opacity="0.16"/>
      <stop offset="1" stop-color="#10B981" stop-opacity="0.08"/>
    </linearGradient>
    <filter id="win" x="-5%" y="-5%" width="110%" height="110%">
      <feDropShadow dx="0" dy="24" stdDeviation="40" flood-color="#000" flood-opacity="0.35"/>
    </filter>
  </defs>

  <!-- backdrop -->
  <rect width="1200" height="750" fill="url(#bg)"/>
  <rect width="1200" height="750" fill="#0B1120" opacity="0.55"/>

  <!-- app window -->
  <g filter="url(#win)">
    <rect x="120" y="90" width="960" height="570" rx="20" fill="#0F172A"/>
    <rect x="120" y="90" width="960" height="570" rx="20" fill="none" stroke="#fff" stroke-opacity="0.08"/>
    <!-- title bar -->
    <rect x="120" y="90" width="960" height="52" rx="20" fill="#111c33"/>
    <rect x="120" y="122" width="960" height="20" fill="#111c33"/>
    <circle cx="152" cy="116" r="7" fill="#ff5f57"/>
    <circle cx="176" cy="116" r="7" fill="#febc2e"/>
    <circle cx="200" cy="116" r="7" fill="#28c840"/>
    <rect x="470" y="104" width="260" height="24" rx="12" fill="#1e293b"/>

    <!-- sidebar -->
    <rect x="120" y="142" width="230" height="518" fill="url(#side)"/>
    <rect x="150" y="180" width="120" height="14" rx="7" fill="#fff" fill-opacity="0.85"/>
    <rect x="150" y="220" width="170" height="12" rx="6" fill="#fff" fill-opacity="0.25"/>
    <rect x="150" y="248" width="150" height="12" rx="6" fill="#fff" fill-opacity="0.25"/>
    <rect x="150" y="276" width="170" height="12" rx="6" fill="#3ECF8E" fill-opacity="0.9"/>
    <rect x="150" y="304" width="140" height="12" rx="6" fill="#fff" fill-opacity="0.25"/>
    <rect x="150" y="332" width="160" height="12" rx="6" fill="#fff" fill-opacity="0.25"/>

    <!-- main content -->
    <text x="390" y="205" font-family="Inter, Segoe UI, system-ui, sans-serif" font-size="40"
      font-weight="800" fill="#fff">Supabase</text>
    <rect x="390" y="235" width="360" height="14" rx="7" fill="#fff" fill-opacity="0.35"/>

    <rect x="390" y="290" width="300" height="150" rx="14" fill="#3ECF8E" fill-opacity="0.18" stroke="#3ECF8E" stroke-opacity="0.4"/>
    <rect x="710" y="290" width="300" height="150" rx="14" fill="#10B981" fill-opacity="0.18" stroke="#10B981" stroke-opacity="0.4"/>
    <rect x="420" y="320" width="90" height="12" rx="6" fill="#fff" fill-opacity="0.55"/>
    <text x="420" y="392" font-family="Inter, system-ui, sans-serif" font-size="46" font-weight="800" fill="#fff">42.8k</text>
    <rect x="740" y="320" width="90" height="12" rx="6" fill="#fff" fill-opacity="0.55"/>
    <text x="740" y="392" font-family="Inter, system-ui, sans-serif" font-size="46" font-weight="800" fill="#fff">+128%</text>

    <rect x="390" y="470" width="620" height="150" rx="14" fill="#fff" fill-opacity="0.05" stroke="#fff" stroke-opacity="0.08"/>
    <polyline points="410,590 480,560 550,575 620,520 690,540 760,495 830,510 900,470 980,485"
      fill="none" stroke="#10B981" stroke-width="4" stroke-linecap="round" stroke-linejoin="round"/>
  </g>
</svg>
